PathFileType  4	(X/Y/Z) C:\PlaceHolderFilePath\
DataRate	CameraRate	NumFrames	NumMarkers	Units	OrigDataRate	OrigDataStartFrame	OrigNumFrames
  240.0		  240.0		   5		     47	     mm	  240.0	      895	   2384
Frame#	Time	R_acr			L_acr			back_T			back_mid			back_B			R_asis			L_asis			R_psis			L_psis			R_ilium			L_ilium			R_thigh_TA			R_thigh_TP			R_thigh_BA			R_thigh_BP			R_kneejoint_LA			R_tibtub			R_shank_TA			R_shank_TP			R_shank_BA			R_shank_BP			R_fibula			R_ankle_LA			R_heel_T			R_heel_LA			R_heel_B			R_latfoot			R_met_5			R_toe			L_thigh_TA			L_thigh_TP			L_thigh_BA			L_thigh_BP			L_kneejoint_LA			L_tibtub			L_shank_TA			L_shank_TP			L_shank_BA			L_shank_BP			L_fibula			L_ankle_LA			L_heel_T			L_heel_LA			L_heel_B			L_latfoot			L_met_5			L_toe			
		X1	Y1	Z1	X2	Y2	Z2	X3	Y3	Z3	X4	Y4	Z4	X5	Y5	Z5	X6	Y6	Z6	X7	Y7	Z7	X8	Y8	Z8	X9	Y9	Z9	X10	Y10	Z10	X11	Y11	Z11	X12	Y12	Z12	X13	Y13	Z13	X14	Y14	Z14	X15	Y15	Z15	X16	Y16	Z16	X17	Y17	Z17	X18	Y18	Z18	X19	Y19	Z19	X20	Y20	Z20	X21	Y21	Z21	X22	Y22	Z22	X23	Y23	Z23	X24	Y24	Z24	X25	Y25	Z25	X26	Y26	Z26	X27	Y27	Z27	X28	Y28	Z28	X29	Y29	Z29	X30	Y30	Z30	X31	Y31	Z31	X32	Y32	Z32	X33	Y33	Z33	X34	Y34	Z34	X35	Y35	Z35	X36	Y36	Z36	X37	Y37	Z37	X38	Y38	Z38	X39	Y39	Z39	X40	Y40	Z40	X41	Y41	Z41	X42	Y42	Z42	X43	Y43	Z43	X44	Y44	Z44	X45	Y45	Z45	X46	Y46	Z46	X47	Y47	Z47	

895	3.725000	789.333000	1640.790000	772.725000	916.805000	1625.017000	477.217000	748.169000	1367.698000	598.394000	766.189000	1298.094000	584.209000	756.000000	1276.463000	655.440000	975.362000	1104.494000	772.074000	956.841000	1078.330000	528.225000	770.256000	1151.221000	709.866000	768.686000	1149.829000	611.756000	778.350000	1117.710000	774.053000	760.225000	1111.280000	553.374000	1087.025000	834.622000	802.340000	1024.763000	792.552000	808.731000	1128.641000	780.746000	781.334000	1062.898000	737.064000	792.616000	1135.952000	634.496000	770.053000	1196.785000	586.436000	722.286000	1162.600000	499.338000	777.623000	1090.901000	484.404000	777.495000	1161.447000	430.500000	771.565000	1100.296000	430.705000	773.125000	1134.420000	283.439000	740.931000	1152.375000	170.609000	728.849000	1101.623000	136.143000	684.102000	1120.279000	93.289000	715.006000	1104.844000	85.916000	672.847000	1232.794000	132.085000	748.114000	1286.044000	106.428000	763.757000	1380.322000	179.174000	706.902000	797.910000	752.564000	503.375000	727.547000	781.168000	497.810000	767.949000	689.756000	513.025000	695.310000	717.650000	513.300000	640.971000	589.445000	527.466000	648.839000	513.094000	565.365000	546.245000	491.376000	509.427000	490.201000	530.680000	527.456000	502.735000	441.132000	518.361000	459.595000	488.656000	531.264000	392.339000	340.989000	545.179000	325.286000	277.774000	552.304000	305.473000	321.189000	595.561000	265.512000	292.874000	569.170000	256.684000	312.192000	606.059000	300.609000	201.457000	545.434000	295.721000	128.350000	532.905000	388.790000	47.199000	580.119000
896	3.729170	789.405000	1641.282000	772.934000	917.282000	1626.076000	477.919000	748.521000	1368.402000	599.070000	766.653000	1298.756000	585.040000	756.521000	1277.192000	656.246000	976.202000	1104.682000	772.361000	957.647000	1079.477000	528.383000	771.075000	1151.495000	710.443000	769.641000	1150.890000	612.402000	779.107000	1117.574000	774.454000	761.148000	1112.694000	553.634000	1084.780000	830.605000	803.577000	1021.896000	789.259000	809.695000	1125.722000	776.240000	782.418000	1059.332000	733.280000	793.305000	1132.533000	631.259000	770.715000	1194.163000	584.216000	722.921000	1163.218000	497.166000	778.250000	1092.061000	480.060000	779.177000	1164.437000	428.362000	772.556000	1103.036000	426.696000	774.664000	1142.346000	280.401000	741.859000	1164.861000	167.824000	729.435000	1114.926000	131.086000	685.604000	1136.122000	88.927000	715.765000	1120.524000	81.159000	673.763000	1247.139000	132.643000	747.692000	1301.761000	108.949000	762.278000	1391.816000	186.558000	704.761000	799.144000	753.449000	503.632000	728.786000	782.268000	497.765000	769.026000	690.692000	513.281000	696.598000	718.638000	513.304000	641.544000	590.575000	527.708000	648.027000	514.032000	565.601000	544.757000	494.306000	509.677000	489.552000	534.751000	527.601000	500.175000	444.938000	518.799000	458.038000	493.278000	531.596000	387.364000	347.688000	545.460000	319.073000	285.991000	552.644000	300.129000	329.894000	596.227000	259.481000	302.630000	569.647000	251.125000	322.018000	606.579000	292.644000	210.390000	545.993000	286.079000	137.467000	533.316000	377.500000	54.758000	580.939000
897	3.733330	789.536000	1641.608000	773.246000	917.689000	1626.818000	478.638000	748.759000	1368.969000	599.976000	767.070000	1299.413000	586.098000	756.987000	1277.841000	657.244000	977.016000	1104.708000	772.534000	958.492000	1080.745000	528.473000	771.874000	1151.513000	711.014000	770.523000	1151.880000	612.917000	779.765000	1117.159000	774.813000	761.884000	1114.197000	553.839000	1082.486000	826.488000	804.852000	1019.083000	785.954000	810.713000	1123.085000	771.848000	783.535000	1055.768000	729.606000	794.132000	1129.100000	628.038000	771.318000	1191.363000	581.798000	723.412000	1163.767000	495.063000	778.856000	1093.142000	475.797000	781.129000	1166.899000	426.153000	773.153000	1105.602000	422.870000	776.421000	1149.811000	277.843000	742.696000	1175.995000	165.658000	729.995000	1127.377000	126.624000	686.978000	1150.482000	85.271000	716.537000	1134.633000	76.828000	674.816000	1260.078000	133.457000	747.225000	1315.796000	111.990000	760.767000	1401.659000	193.617000	702.918000	801.010000	753.788000	504.044000	730.704000	782.569000	497.561000	770.898000	691.085000	513.716000	698.396000	719.062000	513.207000	642.904000	591.252000	527.783000	647.773000	514.467000	565.938000	543.923000	497.001000	509.919000	489.661000	538.665000	527.691000	498.228000	448.629000	519.201000	457.100000	498.016000	531.758000	382.818000	354.498000	546.005000	312.821000	294.638000	553.392000	294.534000	338.831000	596.777000	253.604000	312.303000	570.043000	245.330000	331.840000	606.904000	285.199000	219.547000	546.731000	277.410000	146.628000	533.911000	366.970000	62.100000	582.226000
898	3.737500	789.709000	1641.787000	773.628000	918.057000	1627.350000	479.253000	748.898000	1369.412000	601.066000	767.191000	1299.824000	587.092000	757.338000	1278.241000	658.288000	977.771000	1104.694000	772.739000	959.298000	1081.834000	528.537000	772.469000	1151.233000	711.492000	771.337000	1152.544000	613.493000	780.285000	1116.493000	775.088000	762.502000	1115.614000	553.914000	1080.113000	822.330000	806.301000	1016.224000	782.620000	811.905000	1120.054000	767.296000	784.577000	1052.148000	725.882000	795.041000	1125.684000	624.910000	772.018000	1188.389000	579.287000	723.697000	1164.106000	493.291000	779.541000	1094.086000	471.329000	782.658000	1168.939000	424.238000	773.887000	1107.892000	419.224000	778.225000	1156.149000	275.349000	743.576000	1186.004000	163.918000	730.966000	1138.395000	122.632000	688.363000	1163.558000	82.216000	717.033000	1147.384000	73.240000	675.516000	1271.440000	134.757000	746.750000	1328.201000	115.398000	759.443000	1409.823000	200.866000	700.748000	803.593000	753.733000	504.595000	733.192000	782.367000	497.251000	773.357000	690.913000	514.286000	700.843000	718.941000	512.959000	644.999000	591.402000	527.776000	648.010000	514.592000	566.380000	543.563000	499.420000	510.257000	490.401000	542.547000	527.843000	496.704000	452.280000	519.674000	456.864000	502.664000	532.067000	378.470000	361.703000	546.847000	306.738000	303.456000	554.287000	289.069000	347.936000	597.187000	247.931000	321.932000	570.233000	239.701000	341.750000	606.970000	278.127000	228.630000	547.053000	269.287000	155.883000	534.864000	356.981000	69.765000	583.766000
899	3.741670	789.918000	1641.782000	774.082000	918.315000	1627.615000	479.753000	748.973000	1369.652000	602.275000	767.256000	1300.094000	588.193000	757.574000	1278.467000	659.437000	978.510000	1104.686000	772.830000	960.165000	1082.885000	528.582000	772.924000	1150.735000	711.933000	772.064000	1153.002000	613.931000	780.721000	1115.465000	775.261000	762.983000	1116.860000	553.945000	1077.919000	818.381000	807.574000	1013.493000	779.468000	813.284000	1117.104000	762.794000	785.814000	1048.545000	722.163000	796.264000	1122.422000	621.804000	772.718000	1185.411000	576.869000	723.847000	1164.084000	491.209000	780.091000	1094.814000	467.780000	784.518000	1170.601000	422.339000	774.410000	1109.675000	415.894000	779.982000	1161.613000	273.179000	744.469000	1194.579000	162.516000	731.855000	1147.919000	119.100000	689.702000	1174.957000	79.257000	717.972000	1158.595000	70.224000	676.580000	1281.109000	136.091000	746.375000	1338.845000	119.020000	758.129000	1416.158000	207.524000	698.657000	806.641000	753.248000	505.221000	736.233000	781.625000	497.042000	776.397000	690.390000	515.075000	703.776000	718.207000	512.784000	647.763000	591.088000	527.795000	648.844000	514.227000	566.814000	543.723000	501.707000	510.677000	491.822000	546.339000	528.035000	495.609000	455.949000	520.209000	457.176000	507.495000	532.405000	374.636000	368.958000	547.656000	301.409000	312.026000	555.406000	284.055000	357.231000	597.414000	242.740000	331.601000	570.392000	234.471000	351.875000	606.852000	271.460000	237.836000	547.858000	261.560000	165.169000	535.618000	347.727000	78.133000	585.782000
